<svg xmlns="http://www.w3.org/2000/svg" fill="none" viewBox="0 0 78 147"><path fill="#000" fill-rule="evenodd" d="M25.637 16V5.09h3.026V16h-3.026Zm1.52-12.315c-.45 0-.836-.15-1.158-.448a1.45 1.45 0 0 1-.476-1.086c0-.417.16-.775.476-1.073a1.63 1.63 0 0 1 1.158-.454c.45 0 .833.151 1.15.454.323.298.484.656.484 1.073 0 .421-.162.783-.483 1.086-.318.298-.701.448-1.151.448Zm8.858 12.528c-1.117 0-2.078-.237-2.883-.71a4.801 4.801 0 0 1-1.847-1.989c-.426-.847-.639-1.823-.639-2.926 0-1.117.215-2.097.646-2.94a4.801 4.801 0 0 1 1.854-1.982c.8-.478 1.752-.717 2.855-.717.952 0 1.785.173 2.5.518A4.18 4.18 0 0 1 40.2 6.923c.416.625.646 1.36.688 2.202h-2.855c-.08-.545-.293-.982-.639-1.314-.34-.336-.788-.504-1.342-.504-.469 0-.879.128-1.229.383-.346.251-.615.618-.81 1.101-.194.483-.29 1.068-.29 1.754 0 .697.094 1.288.283 1.776.194.488.467.86.817 1.115.35.256.76.384 1.229.384.345 0 .656-.071.93-.213.28-.143.51-.348.69-.618.184-.275.304-.604.361-.988h2.855c-.047.834-.274 1.568-.681 2.202a4.118 4.118 0 0 1-1.67 1.477c-.71.355-1.55.533-2.52.533Zm11.781 0c-1.122 0-2.088-.227-2.898-.682a4.669 4.669 0 0 1-1.86-1.946c-.436-.843-.654-1.84-.654-2.99 0-1.122.218-2.107.654-2.954a4.83 4.83 0 0 1 1.84-1.982c.795-.473 1.727-.71 2.797-.71.72 0 1.39.116 2.01.348.625.227 1.17.57 1.634 1.03.469.459.833 1.037 1.094 1.733.26.69.39 1.5.39 2.429v.83h-7.429v.008c0 .54.1 1.006.299 1.399.203.393.49.696.859.909.37.213.807.32 1.314.32.336 0 .644-.048.923-.143.28-.094.519-.236.718-.426.198-.189.35-.421.454-.696l2.798.185a3.821 3.821 0 0 1-.873 1.761c-.436.498-1 .886-1.69 1.165-.687.275-1.48.412-2.38.412Zm-2.116-7.84c-.184.322-.285.68-.303 1.072h4.578c0-.436-.094-.822-.284-1.158a2.035 2.035 0 0 0-.788-.788 2.248 2.248 0 0 0-1.158-.292c-.46 0-.866.107-1.221.32-.35.208-.625.49-.824.845Zm9.79 42.017c3.162 0 6.157-.547 8.834-1.525V94.17a5 5 0 0 1-5 5H43.693v22.412a4.416 4.416 0 1 1-8.834 0V99.171H16.304a5 5 0 0 1-5-5V31a5 5 0 0 1 5-5h21.795c-2.05 2.464-3.24 5.393-3.24 8.537 0 8.755 9.228 15.853 20.611 15.853ZM.723 135.941c.496.791 1.24 1.444 2.232 1.959.862.447 1.69.676 2.484.688a4.123 4.123 0 0 0 2.161-.542c.654-.376 1.194-.922 1.62-1.64l-2.534-1.315a2.37 2.37 0 0 1-.777.709 1.79 1.79 0 0 1-.896.231c-.309 0-.617-.08-.924-.239a2.032 2.032 0 0 1-.914-.907c-.193-.388-.263-.843-.21-1.366.056-.52.244-1.089.565-1.707.316-.609.672-1.083 1.067-1.423.394-.339.803-.54 1.225-.604.429-.065.851.01 1.267.226.492.255.812.61.96 1.066.154.453.141.94-.038 1.46l2.534 1.316c.35-.768.485-1.525.403-2.272a4.177 4.177 0 0 0-.836-2.074c-.476-.636-1.136-1.173-1.98-1.612-.98-.508-1.935-.734-2.865-.678a4.793 4.793 0 0 0-2.558.905c-.77.549-1.413 1.32-1.928 2.312-.508.979-.769 1.943-.78 2.891a4.801 4.801 0 0 0 .722 2.616Zm13.853 6.663 2.937-10.506 2.825.789-.512 1.834.11.03c.373-.598.832-1.001 1.377-1.208a2.637 2.637 0 0 1 1.7-.07 4.496 4.496 0 0 1 .889.359l-.723 2.586a3.913 3.913 0 0 0-.537-.269 5.349 5.349 0 0 0-.65-.233 2.425 2.425 0 0 0-1.228-.041c-.384.09-.72.271-1.008.544a2.299 2.299 0 0 0-.604 1.056l-1.662 5.944-2.914-.815Zm16.186 2.925c.778.508 1.727.799 2.846.873.898.06 1.699-.024 2.402-.253.708-.233 1.296-.583 1.764-1.05a3.82 3.82 0 0 0 .989-1.699l-2.78-.37a1.853 1.853 0 0 1-.5.664 1.915 1.915 0 0 1-.744.378 2.897 2.897 0 0 1-.93.08c-.506-.034-.936-.169-1.29-.406a2.186 2.186 0 0 1-.798-.964c-.172-.406-.24-.878-.204-1.416v-.007l7.413.493.055-.829c.062-.926-.015-1.742-.229-2.45-.213-.711-.539-1.312-.976-1.801a4.455 4.455 0 0 0-1.561-1.136 5.688 5.688 0 0 0-1.983-.481c-1.067-.071-2.014.103-2.839.523a4.826 4.826 0 0 0-1.967 1.854c-.491.817-.774 1.785-.848 2.905-.077 1.148.074 2.157.453 3.027a4.666 4.666 0 0 0 1.727 2.065Zm.883-6.041c.044-.39.168-.74.373-1.05.222-.341.514-.604.878-.789a2.323 2.323 0 0 1 1.24-.237c.44.029.818.151 1.136.367.322.211.567.491.734.839.167.348.235.739.206 1.174l-4.568-.304Zm17.613 6.348c-.688.111-1.32.09-1.895-.062a3.004 3.004 0 0 1-1.45-.867c-.384-.428-.634-.996-.748-1.707-.097-.598-.068-1.119.086-1.561.155-.442.401-.817.74-1.126a4.382 4.382 0 0 1 1.2-.768 9.88 9.88 0 0 1 1.486-.513 38.335 38.335 0 0 0 1.485-.426c.373-.122.637-.256.791-.401.155-.144.213-.331.176-.56l-.006-.042c-.072-.445-.267-.766-.587-.964-.315-.198-.727-.257-1.237-.175-.537.087-.946.275-1.225.565-.28.284-.444.613-.49.985l-2.798.22c.035-.677.22-1.287.554-1.83.334-.548.805-1.003 1.414-1.364.612-.367 1.348-.62 2.208-.759a7.004 7.004 0 0 1 1.752-.066 4.566 4.566 0 0 1 1.57.417c.478.225.878.549 1.2.972.322.418.534.947.637 1.588l1.17 7.264-2.834.456-.24-1.493-.084.013a3.078 3.078 0 0 1-.551 1.003c-.25.299-.566.553-.949.764-.384.205-.843.351-1.376.437Zm.523-2.199c.44-.071.814-.22 1.122-.447a2.09 2.09 0 0 0 .678-.843c.143-.33.184-.684.123-1.063l-.183-1.143a1.623 1.623 0 0 1-.359.231 7.558 7.558 0 0 1-.518.22c-.195.069-.39.137-.587.202l-.534.165a3.76 3.76 0 0 0-.88.393 1.493 1.493 0 0 0-.536.554c-.115.211-.15.456-.104.736.065.407.262.694.591.862.334.162.73.206 1.187.133Zm9.125-10.838 4.57 9.906 2.747-1.267-2.743-5.946a2.234 2.234 0 0 1-.227-1.053c.015-.34.108-.641.28-.903.173-.268.412-.472.718-.613.451-.208.88-.232 1.289-.07.412.159.73.481.954.967l2.85 6.178 2.664-1.228-2.79-6.05c-.239-.516-.29-.995-.155-1.438.132-.447.448-.785.947-1.015.438-.203.867-.234 1.286-.093.42.14.756.485 1.01 1.036l2.823 6.12 2.741-1.264-3.073-6.662c-.495-1.075-1.168-1.771-2.019-2.088-.848-.323-1.734-.272-2.658.155-.727.335-1.277.797-1.652 1.387a2.904 2.904 0 0 0-.468 1.867l-.103.047a2.64 2.64 0 0 0-1.586-.927c-.634-.119-1.29-.022-1.97.291-.67.309-1.169.743-1.496 1.3a3.028 3.028 0 0 0-.398 1.85l-.116.053-.806-1.747-2.619 1.207Z" clip-rule="evenodd"/></svg>